<svg width="300" height="300" viewBox="0 0 300 300" fill="#FFFFF" xmlns="http://www.w3.org/2000/svg">
<path d="M97.431 263.007C78.1041 253.101 61.7303 241.046 48.6387 227.063C33.985 211.416 24.0365 194.069 19.0807 175.496C11.2217 146.047 16.8574 116.127 34.9692 91.2288C46.6264 75.2053 63.5294 63.0624 85.2303 55.1393C104.73 48.0071 127.23 44.551 152.109 44.8733C161.486 44.9958 170.85 45.6313 180.159 46.7771C157.698 31.4371 134.798 23.0852 115.218 23.6854C113.413 23.7083 111.67 23.0219 110.365 21.7739C109.06 20.526 108.297 18.8165 108.241 17.0136C108.185 15.2108 108.839 13.4589 110.064 12.1353C111.289 10.8117 112.986 10.0224 114.789 9.93732C143.593 9.07772 177.99 24.5637 208.984 51.9045C237.056 58.4673 263.564 69.3633 284.982 83.5667C285.735 84.0662 286.383 84.709 286.888 85.4584C287.393 86.2077 287.745 87.0489 287.925 87.9339C288.105 88.8189 288.109 89.7304 287.936 90.6164C287.763 91.5024 287.417 92.3455 286.918 93.0975C286.419 93.8495 285.777 94.4958 285.027 94.9994C284.278 95.5031 283.436 95.8541 282.551 96.0327C281.665 96.2112 280.753 96.2136 279.866 96.0399C278.979 95.8662 278.135 95.5196 277.381 95.02C263.521 85.8277 247.003 78.0396 229.228 72.0518C242.766 87.2254 254.162 103.854 262.518 120.708C273.459 142.775 278.839 164.731 278.084 184.209C277.364 202.645 272.919 219.15 264.871 233.261C257.319 246.511 246.533 257.631 233.516 265.589C199.531 286.612 151.411 287.545 107.946 268.03C104.331 266.421 100.826 264.747 97.431 263.007ZM202.613 64.6771C185.966 60.9444 168.983 58.9204 151.928 58.6367C129.073 58.3511 107.625 61.6028 89.9513 68.0686C70.8718 75.0441 56.1195 85.5662 46.0957 99.3429C30.4805 120.813 25.6068 146.607 32.3752 171.975C41.5859 206.47 70.4074 236.126 113.545 255.501C132.78 264.134 153.483 268.545 173.417 268.257C193.351 267.97 211.551 263.01 226.227 253.908C249.915 239.255 263.088 214.964 264.306 183.671C265.63 149.737 245.08 107.107 210.69 72.4367C208.03 69.754 205.338 67.1675 202.613 64.6771Z" fill="white"/>
</svg>
