<?xml version="1.0" encoding="utf-8"?>
<!-- Generator: Adobe Illustrator 18.0.0, SVG Export Plug-In . SVG Version: 6.00 Build 0)  -->
<!DOCTYPE svg PUBLIC "-//W3C//DTD SVG 1.1//EN" "http://www.w3.org/Graphics/SVG/1.1/DTD/svg11.dtd">
<svg xmlns="http://www.w3.org/2000/svg" xmlns:xlink="http://www.w3.org/1999/xlink" version="1.1" x="0px" y="0px" width="2800px" height="2800px" viewBox="0 0 2800 2800" enable-background="new 0 0 2800 2800" xml:space="preserve">
<g id="BACKGROUND">
	<g>
		<linearGradient id="SVGID_1_" gradientUnits="userSpaceOnUse" x1="-3.142759e-08" y1="3.142668e-08" x2="2800" y2="2800">
			<stop offset="0" style="stopColor:#00BFFF"/>
			<stop offset="1" style="stopColor:#9136D9"/>
		</linearGradient>
		
	</g>
</g>
<g id="OBJECTS">
	<path opacity="0.1" d="M2400.4,359.6H459.6c-55.2,0-100,44.8-100,100v1940.8c0,55.2,44.8,100,100,100h1940.8   c55.2,0,100-44.8,100-100V459.6C2500.4,404.4,2455.6,359.6,2400.4,359.6z"/>
	<g>
		<g>
			<path fill="#4a555b" d="M2370.4,329.6H429.6c-55.2,0-100,44.8-100,100v1940.8c0,55.2,44.8,100,100,100h1940.8     c55.2,0,100-44.8,100-100V429.6C2470.4,374.4,2425.6,329.6,2370.4,329.6z"/>
		</g>
		<g>
			<path fill="#121212" d="M349.6,638v1732.4c0,44.2,35.8,80,80,80h1940.8c44.2,0,80-35.8,80-80V638c0-5.5-4.5-10-10-10H359.6     C354.1,628,349.6,632.5,349.6,638z"/>
		</g>
		<g>
			<circle fill="#EF3F6B" cx="420.4" cy="408.3" r="23.7"/>
			<circle fill="#FFCC4E" cx="491.5" cy="408.3" r="23.7"/>
			<circle fill="#00A188" cx="562.5" cy="408.3" r="23.7"/>
		</g>
		<g>
			<path fill="#121212" d="M663.3,608h1473.4c5.5,0,10-4.5,10-10V496.9c0-5.5-4.5-10-10-10H663.3c-5.5,0-10,4.5-10,10V598     C653.3,603.5,657.8,608,663.3,608z"/>
			<path fill="#121212" d="M359.6,608h263.7c5.5,0,10-4.5,10-10V496.9c0-5.5-4.5-10-10-10H359.6c-5.5,0-10,4.5-10,10V598     C349.6,603.5,354.1,608,359.6,608z"/>
			<path fill="#121212" d="M2166.7,496.9V598c0,5.5,4.5,10,10,10h263.7c5.5,0,10-4.5,10-10V496.9c0-5.5-4.5-10-10-10h-263.7     C2171.2,486.9,2166.7,491.4,2166.7,496.9z"/>
		</g>
	</g>
	<g>
		<g>
			<rect x="564.4" y="752.8" fill="#f4433f" width="261.9" height="109"/>
		</g>
		<rect x="846.3" y="752.8" fill="#4a555b" width="261.9" height="109"/>
		<rect x="1128.1" y="752.8" fill="#4a555b" width="261.9" height="109"/>
		<rect x="1410" y="752.8" fill="#4a555b" width="261.9" height="109"/>
		<rect x="1691.9" y="752.8" fill="#4a555b" width="261.9" height="109"/>
		<rect x="1973.7" y="752.8" fill="#4a555b" width="261.9" height="109"/>
	</g>
	<g>
		<rect x="564.4" y="1687" fill="#f4433f" width="261.9" height="109"/>
		<rect x="846.3" y="1687" fill="#f4433f" width="261.9" height="109"/>
		<rect x="1128.1" y="1687" fill="#f4433f" width="261.9" height="109"/>
		<rect x="1410" y="1687" fill="#f4433f" width="261.9" height="109"/>
	</g>
	<rect x="564.4" y="985" fill="#4a555b" width="1107.4" height="580"/>
	<g>
		<rect x="564.4" y="1945.4" fill="#4a555b" width="1107.4" height="20.6"/>
		<rect x="564.4" y="2015.7" fill="#4a555b" width="1107.4" height="20.6"/>
		<rect x="564.4" y="1875.1" fill="#4a555b" width="1107.4" height="20.6"/>
		<rect x="564.4" y="2086.1" fill="#4a555b" width="1107.4" height="20.6"/>
		<rect x="564.4" y="2156.4" fill="#4a555b" width="1107.4" height="20.6"/>
		<rect x="564.4" y="2226.7" fill="#4a555b" width="1107.4" height="20.6"/>
		<rect x="564.4" y="2297" fill="#4a555b" width="1107.4" height="20.6"/>
	</g>
	<g>
		<rect x="1795" y="985" fill="#4a555b" width="440.6" height="228.4"/>
		<rect x="1795" y="1243.4" fill="#4a555b" width="440.6" height="20.6"/>
	</g>
	<g>
		<rect x="1795" y="1687" fill="#4a555b" width="440.6" height="228.4"/>
		<rect x="1795" y="1945.4" fill="#4a555b" width="440.6" height="20.6"/>
	</g>
	<g>
		<rect x="1795" y="2038.6" fill="#4a555b" width="440.6" height="228.4"/>
		<rect x="1795" y="2297" fill="#4a555b" width="440.6" height="20.6"/>
	</g>
	<g>
		<rect x="1795" y="1336.6" fill="#4a555b" width="440.6" height="228.4"/>
		<rect x="1795" y="1595" fill="#4a555b" width="440.6" height="20.6"/>
	</g>
</g>
</svg>
